HIERARCHY
ROOT Hips
{
 OFFSET 0.000000 0.000000 0.000000
 CHANNELS 6 Xposition Yposition Zposition Yrotation Xrotation Zrotation
 JOINT Chest
 {
  OFFSET 0.000000 9.588913 -0.003946
  CHANNELS 3 Yrotation Xrotation Zrotation
  JOINT Chest2
  {
   OFFSET 0.000000 9.541882 0.008053
   CHANNELS 3 Yrotation Xrotation Zrotation
   JOINT Chest3
   {
    OFFSET 0.000000 9.501360 0.000000
    CHANNELS 3 Yrotation Xrotation Zrotation
    JOINT Chest4
    {
     OFFSET 0.000000 9.491660 0.000000
     CHANNELS 3 Yrotation Xrotation Zrotation
     JOINT Neck
     {
      OFFSET 0.000000 14.331917 0.000000
      CHANNELS 3 Yrotation Xrotation Zrotation
      JOINT Head
      {
       OFFSET 0.000000 8.884799 0.017034
       CHANNELS 3 Yrotation Xrotation Zrotation
       End Site
       {
        OFFSET 0.000000 16.896195 0.008993
       }
      }
     }
     JOINT RightCollar
     {
      OFFSET -2.923010 9.499495 0.000000
      CHANNELS 3 Yrotation Xrotation Zrotation
      JOINT RightShoulder
      {
       OFFSET -13.795216 0.000000 0.000000
       CHANNELS 3 Yrotation Xrotation Zrotation
       JOINT RightElbow
       {
        OFFSET -30.272209 0.000000 0.000000
        CHANNELS 3 Yrotation Xrotation Zrotation
        JOINT RightWrist
        {
         OFFSET -24.478199 0.000000 0.000000
         CHANNELS 3 Yrotation Xrotation Zrotation
         End Site
         {
          OFFSET -18.090752 0.000000 0.000000
         }
        }
       }
      }
     }
     JOINT LeftCollar
     {
      OFFSET 2.923010 9.499495 0.000000
      CHANNELS 3 Yrotation Xrotation Zrotation
      JOINT LeftShoulder
      {
       OFFSET 13.795216 0.000000 0.000000
       CHANNELS 3 Yrotation Xrotation Zrotation
       JOINT LeftElbow
       {
        OFFSET 30.272209 0.000000 0.000000
        CHANNELS 3 Yrotation Xrotation Zrotation
        JOINT LeftWrist
        {
         OFFSET 24.478199 0.000000 0.000000
         CHANNELS 3 Yrotation Xrotation Zrotation
         End Site
         {
          OFFSET 18.090752 0.000000 0.000000
         }
        }
       }
      }
     }
    }
   }
  }
 }
 JOINT RightHip
 {
  OFFSET -7.826875 0.019532 0.001973
  CHANNELS 3 Yrotation Xrotation Zrotation
  JOINT RightKnee
  {
   OFFSET 0.000000 -40.546152 -0.001885
   CHANNELS 3 Yrotation Xrotation Zrotation
   JOINT RightAnkle
   {
    OFFSET 0.000000 -39.417092 -0.003189
    CHANNELS 3 Yrotation Xrotation Zrotation
    JOINT RightToe
    {
     OFFSET 0.000000 -7.579396 17.243563
     CHANNELS 3 Yrotation Xrotation Zrotation
     End Site
     {
      OFFSET 0.000000 -1.500329 6.694466
     }
    }
   }
  }
 }
 JOINT LeftHip
 {
  OFFSET 7.826875 0.019532 0.001973
  CHANNELS 3 Yrotation Xrotation Zrotation
  JOINT LeftKnee
  {
   OFFSET 0.000000 -40.546152 -0.001885
   CHANNELS 3 Yrotation Xrotation Zrotation
   JOINT LeftAnkle
   {
    OFFSET 0.000000 -39.417092 -0.003189
    CHANNELS 3 Yrotation Xrotation Zrotation
    JOINT LeftToe
    {
     OFFSET 0.000000 -7.579396 17.243563
     CHANNELS 3 Yrotation Xrotation Zrotation
     End Site
     {
      OFFSET 0.000000 -1.500329 6.694466
     }
    }
   }
  }
 }
}
MOTION
Frames: 8
Frame Time: 0.008333
26.709024 87.977037 -6.182265 54.113414 -6.957086 3.681087 3.828652 6.232479 0.088800 2.162338 3.579512 0.204143 2.706242 4.472984 0.276461 2.162339 3.579512 0.204143 -5.006337 22.763507 0.594250 -5.571156 -1.154650 1.792568 8.498909 -4.395304 -5.801737 13.332292 -39.109641 60.889208 22.183414 9.255035 -7.493888 26.282151 -0.960583 -30.786312 -3.973406 -1.830600 0.646656 3.563804 -1.648031 -88.121933 -6.434243 0.723900 -4.413067 -0.504645 -4.003997 6.882134 -6.255023 12.601804 -16.395605 -7.280182 5.998852 -0.377300 -6.697924 -6.769740 11.846339 0.086268 -0.446514 0.051936 5.620887 4.075601 2.988647 3.982220 2.982906 -0.525418 -1.565273 -1.270148 -2.824050 0.053026 0.551067 0.025934
26.766617 87.970734 -6.162274 54.146479 -6.975461 3.701456 3.816410 6.214220 0.061740 2.155437 3.568952 0.192684 2.697485 4.459858 0.262001 2.155438 3.568952 0.192684 -4.988952 22.731685 0.589218 -5.550134 -1.193909 1.783001 8.445683 -4.406562 -5.704133 12.778824 -38.791511 61.385141 22.941290 9.793368 -7.562021 26.544778 -0.839616 -31.001263 -3.979961 -1.877895 0.632419 3.587235 -1.623525 -88.134731 -6.359456 0.688136 -4.355423 -0.492332 -4.011364 6.864430 -6.292009 12.668449 -16.438840 -7.287585 5.985399 -0.374087 -6.707955 -6.796910 11.862034 0.089540 -0.450917 0.056769 5.588544 4.159029 2.967218 3.987087 2.935754 -0.547882 -1.568838 -1.301715 -2.809526 0.053339 0.564208 0.027959
26.825181 87.964831 -6.141147 54.161795 -6.998290 3.720842 3.813044 6.195645 0.034742 2.153290 3.558253 0.181351 2.694676 4.446553 0.247743 2.153290 3.558253 0.181351 -4.974075 22.705294 0.586192 -5.532469 -1.226448 1.776206 8.388969 -4.408484 -5.599544 12.214482 -38.480985 61.881828 23.684565 10.305002 -7.621468 26.737353 -0.767476 -31.179042 -3.994980 -1.922871 0.622477 3.613355 -1.596953 -88.153410 -6.281549 0.640056 -4.299207 -0.480477 -4.019471 6.848050 -6.313927 12.734973 -16.481228 -7.290332 5.980652 -0.367906 -6.719972 -6.826523 11.874489 0.092853 -0.456737 0.062083 5.573490 4.249204 2.948732 3.988094 2.890517 -0.568172 -1.568982 -1.335527 -2.799374 0.052980 0.575974 0.031674
26.884299 87.959474 -6.119319 54.162014 -7.021963 3.739936 3.818040 6.174528 0.008415 2.155840 3.546011 0.169952 2.697740 4.431316 0.233440 2.155840 3.546011 0.169952 -4.963014 22.685831 0.587491 -5.520186 -1.250334 1.775012 8.327572 -4.405859 -5.490244 11.642938 -38.174972 62.372794 24.402210 10.779917 -7.687317 26.863720 -0.764269 -31.289956 -4.022636 -1.964051 0.613133 3.645858 -1.567840 -88.174051 -6.201151 0.588374 -4.245662 -0.468870 -4.026510 6.834043 -6.321497 12.796956 -16.522760 -7.289118 5.986253 -0.360281 -6.733870 -6.858400 11.886625 0.096072 -0.464425 0.066398 5.569404 4.342469 2.930451 3.987083 2.846028 -0.584788 -1.563765 -1.369607 -2.793838 0.052580 0.585777 0.036525
26.943584 87.954738 -6.096805 54.147551 -7.043794 3.758332 3.831089 6.148764 -0.017019 2.163348 3.531181 0.158458 2.707001 4.412843 0.219050 2.163349 3.531181 0.158458 -4.955923 22.675719 0.594063 -5.513720 -1.262655 1.780488 8.263698 -4.404091 -5.379468 11.066377 -37.867468 62.852435 25.091790 11.227618 -7.768720 26.898934 -0.823284 -31.321560 -4.061466 -1.999867 0.602218 3.686449 -1.535679 -88.196162 -6.118735 0.541739 -4.193082 -0.459187 -4.029553 6.823477 -6.313510 12.853591 -16.560776 -7.285852 5.998670 -0.355104 -6.746997 -6.890290 11.899904 0.098598 -0.473909 0.070098 5.568061 4.438790 2.913062 3.987908 2.797264 -0.600306 -1.551365 -1.401263 -2.788316 0.052422 0.593627 0.039385
27.002612 87.950599 -6.073268 54.121865 -7.061853 3.774124 3.850914 6.117464 -0.042675 2.174823 3.513401 0.146433 2.721216 4.390684 0.204015 2.174824 3.513402 0.146433 -4.950215 22.676696 0.607386 -5.510596 -1.261474 1.793638 8.204001 -4.413125 -5.266989 10.481771 -37.541786 63.321687 25.763083 11.665817 -7.873379 26.805416 -0.929657 -31.259186 -4.109028 -2.030729 0.593600 3.732488 -1.501300 -88.219915 -6.034899 0.503482 -4.140107 -0.450906 -4.027373 6.820413 -6.293107 12.905585 -16.592661 -7.280764 6.012935 -0.352578 -6.760141 -6.919731 11.913535 0.100401 -0.484741 0.073468 5.561776 4.536393 2.899271 3.990848 2.743028 -0.617403 -1.529832 -1.430231 -2.780678 0.052643 0.600175 0.039493
27.062489 87.947118 -6.050786 54.089000 -7.072876 3.803133 3.876588 6.080337 -0.085370 2.188696 3.492699 0.132846 2.738411 4.364881 0.187032 2.188697 3.492700 0.132846 -4.944695 22.689776 0.630192 -5.510163 -1.245578 1.817159 8.152443 -4.443909 -5.152442 9.888614 -37.172004 63.782220 26.438497 12.098060 -8.007713 26.559224 -1.079268 -31.077519 -4.168244 -2.055880 0.592790 3.778101 -1.466685 -88.244742 -5.952655 0.478429 -4.084846 -0.444589 -4.024868 6.824254 -6.270299 12.948305 -16.638272 -7.274692 6.024035 -0.350079 -6.772868 -6.925019 11.925892 0.106276 -0.513512 0.078318 5.547057 4.631364 2.871204 3.993153 2.691298 -0.635907 -1.500304 -1.486875 -2.770971 0.055043 0.629518 0.038802
27.121283 87.943987 -6.024670 54.057769 -7.082299 3.817610 3.903910 6.039338 -0.116211 2.204044 3.469495 0.117245 2.757433 4.335963 0.167528 2.204046 3.469496 0.117245 -4.939344 22.717000 0.664057 -5.512810 -1.212468 1.852770 8.102690 -4.501123 -5.042320 9.291489 -36.733544 64.244681 27.145684 12.510567 -8.175365 26.154169 -1.271785 -30.755962 -4.238903 -2.074393 0.598786 3.815634 -1.434669 -88.268413 -5.871275 0.466736 -4.024385 -0.442593 -4.022451 6.831974 -6.252459 12.989195 -16.668582 -7.268853 6.039897 -0.346119 -6.779928 -6.951807 11.936434 0.108106 -0.525439 0.081211 5.519566 4.719820 2.859082 3.998888 2.643059 -0.653754 -1.467137 -1.516307 -2.762202 0.054842 0.632007 0.036044
